# xmcd
#
# Track frame offsets: 
#        183
#        23625
#        62268
#        91980
#        121008
#        158255
#        183755
#        221803
#
# Disc length: 3289 seconds
#
# Revision: 12
# Processed by: cddbd v1.5.2PL0 Copyright (c) Steve Scherf et al.
# Submitted via: ExactAudioCopy v1.0b3
#
DISCID=520cd708
DTITLE=Metallica - Master Of Puppets
DYEAR=1986
DGENRE=Heavy Metal
TTITLE0=Battery
TTITLE1=Master Of Puppets
TTITLE2=The Thing That Should Not Be
TTITLE3=Welcome Home (Sanitarium)
TTITLE4=Disposable Heroes
TTITLE5=Leper Messiah
TTITLE6=Orion
TTITLE7=Damage, Inc.
EXTD=Metallica and Flemming Rasmussen
EXTT0=Hetfield - Ulrich
EXTT1=Hetfield - Ulrich - Burton - Hammett
EXTT2=Hetfield - Ulrich - Hammett
EXTT3=Hetfield - Ulrich - Hammett
EXTT4=Hetfield - Ulrich - Hammett
EXTT5=Hetfield - Ulrich
EXTT6=Hetfield - Ulrich - Burton
EXTT7=Hetfield - Ulrich - Burton - Hammett
PLAYORDER=
